<svg width="448" height="512" viewBox="0 0 448 512" fill="none" xmlns="http://www.w3.org/2000/svg">
<g clip-path="url(#clip0_26_30)">
<path d="M448 80V128C448 172.2 347.7 208 224 208C100.3 208 0 172.2 0 128V80C0 35.8 100.3 0 224 0C347.7 0 448 35.8 448 80ZM393.2 214.7C414 207.3 433.1 197.8 448 186.1V288C448 332.2 347.7 368 224 368C100.3 368 0 332.2 0 288V186.1C14.9 197.9 34 207.3 54.8 214.7C99.7 230.7 159.5 240 224 240C288.5 240 348.3 230.7 393.2 214.7ZM0 346.1C14.9 357.9 34 367.3 54.8 374.7C99.7 390.7 159.5 400 224 400C288.5 400 348.3 390.7 393.2 374.7C414 367.3 433.1 357.8 448 346.1V432C448 476.2 347.7 512 224 512C100.3 512 0 476.2 0 432V346.1Z" fill="#878787"/>
</g>
<defs>
<clipPath id="clip0_26_30">
<rect width="448" height="512" fill="white"/>
</clipPath>
</defs>
</svg>
