<svg width="576" height="506" viewBox="0 0 576 506" fill="none" xmlns="http://www.w3.org/2000/svg">
<path d="M163.9 130.35C134.5 100.55 134.5 52.15 163.9 22.35C193.3 -7.45 240.9 -7.45 270.3 22.35L288 40.35L305.7 22.35C335.1 -7.45 382.7 -7.45 412.1 22.35C441.5 52.15 441.5 100.55 412.1 130.35L310.5 233.55C304.3 239.85 296.2 242.95 288 242.95C279.8 242.95 271.7 239.85 265.5 233.55L163.9 130.35ZM568.2 329.75C581.3 347.55 577.5 372.55 559.7 385.65L433.1 478.95C409.7 496.15 381.5 505.45 352.4 505.45H192H32C14.3 505.45 0 491.15 0 473.45V409.45C0 391.75 14.3 377.45 32 377.45H68.8L113.7 341.45C136.4 323.25 164.6 313.45 193.7 313.45H272H288H352C369.7 313.45 384 327.75 384 345.45C384 363.15 369.7 377.45 352 377.45H288H272C263.2 377.45 256 384.65 256 393.45C256 402.25 263.2 409.45 272 409.45H392.6L512.3 321.25C530.1 308.15 555.1 311.95 568.2 329.75ZM193.6 377.45H192.7C193 377.45 193.3 377.45 193.6 377.45Z" fill="#484848"/>
</svg>
