<svg width="500" height="500" viewBox="0 0 500 500" fill="none" xmlns="http://www.w3.org/2000/svg">
<mask id="mask0_15_2" style="mask-type:alpha" maskUnits="userSpaceOnUse" x="0" y="0" width="500" height="500">
<rect width="500" height="500" fill="#D9D9D9"/>
</mask>
<g mask="url(#mask0_15_2)">
<path d="M249.998 478.646L182.389 411.458H88.5395V317.609L21.3521 250L88.5395 182.39V88.5415H182.389L249.998 21.354L317.607 88.5415H411.456V182.39L478.644 250L411.456 317.609V411.458H317.607L249.998 478.646ZM249.993 351.041C277.948 351.041 301.777 341.191 321.482 321.489C341.187 301.785 351.04 277.956 351.04 250.005C351.04 222.05 341.189 198.22 321.487 178.515C301.783 158.811 277.954 148.958 250.003 148.958C222.048 148.958 198.218 158.809 178.514 178.51C158.809 198.215 148.956 222.043 148.956 249.995C148.956 277.949 158.807 301.779 178.508 321.484C198.213 341.189 222.041 351.041 249.993 351.041ZM249.998 423.958L301.56 372.396H372.394V301.562L423.956 250L372.394 198.437V127.604H301.56L249.998 76.0415L198.435 127.604H127.602V198.437L76.0395 250L127.602 301.562V372.396H198.435L249.998 423.958Z" fill="white"/>
</g>
</svg>
